<svg width="16" height="16" viewBox="0 0 16 16" fill="none" xmlns="http://www.w3.org/2000/svg">
<path fill-rule="evenodd" clip-rule="evenodd" d="M1.33337 7.99997C1.33337 11.682 4.31805 14.6666 8.00006 14.6666C11.6821 14.6666 14.6667 11.682 14.6667 7.99997C14.6667 4.31798 11.6821 1.33331 8.00006 1.33331C4.31805 1.33331 1.33337 4.31798 1.33337 7.99997Z" fill="#003087"/>
<path fill-rule="evenodd" clip-rule="evenodd" d="M8.02312 5.58395C8.25532 5.5752 8.48134 5.65987 8.65065 5.81902C8.8166 5.97501 8.91449 6.18981 8.9236 6.41701C8.91024 6.8166 8.72805 7.02187 8.38995 7.32645C8.36515 7.34879 8.33863 7.37221 8.31077 7.3968C7.98254 7.68657 7.46897 8.13997 7.40455 8.92149C7.37661 9.26052 7.6288 9.55801 7.96783 9.58595C8.30686 9.61389 8.60435 9.36171 8.63229 9.02268C8.65478 8.74977 8.80156 8.61369 9.21448 8.24172C9.60206 7.89257 10.1341 7.38157 10.1556 6.42984C10.1558 6.42023 10.1558 6.41062 10.1556 6.40101C10.142 5.83923 9.90384 5.30631 9.49439 4.92143C9.08996 4.54126 8.55172 4.33683 7.99744 4.35225C6.84287 4.3294 5.88205 5.23917 5.84445 6.3959C5.8334 6.7359 6.10006 7.02048 6.44006 7.03153C6.78006 7.04259 7.06464 6.77592 7.07569 6.43593C7.09147 5.95081 7.49671 5.56988 7.98187 5.58412C7.99562 5.58452 8.00938 5.58447 8.02312 5.58395ZM7.99994 11.3127C8.34012 11.3127 8.61589 11.0369 8.61589 10.6967C8.61589 10.3565 8.34012 10.0808 7.99994 10.0808C7.65976 10.0808 7.38399 10.3565 7.38399 10.6967C7.38399 11.0369 7.65976 11.3127 7.99994 11.3127Z" fill="white"/>
</svg>
