<svg width="16" height="16" viewBox="0 0 16 16" fill="none" xmlns="http://www.w3.org/2000/svg">
<path fill-rule="evenodd" clip-rule="evenodd" d="M1.33337 7.99997C1.33337 11.682 4.31805 14.6666 8.00006 14.6666C11.6821 14.6666 14.6667 11.682 14.6667 7.99997C14.6667 4.31798 11.6821 1.33331 8.00006 1.33331C4.31805 1.33331 1.33337 4.31798 1.33337 7.99997ZM11.7713 11.7712C10.7711 12.7714 9.41455 13.3333 8.00006 13.3333C6.58557 13.3333 5.22901 12.7714 4.22881 11.7712C3.22862 10.771 2.66671 9.41446 2.66671 7.99997C2.66671 6.58548 3.22862 5.22893 4.22881 4.22874C5.22901 3.22855 6.58557 2.66664 8.00006 2.66664C9.41455 2.66664 10.7711 3.22855 11.7713 4.22874C12.7715 5.22893 13.3334 6.58548 13.3334 7.99997C13.3334 9.41446 12.7715 10.771 11.7713 11.7712ZM8.02326 5.58394C8.25546 5.5752 8.48148 5.65986 8.65078 5.81901C8.81673 5.975 8.91463 6.1898 8.92374 6.41701C8.91038 6.8166 8.72819 7.02187 8.39009 7.32644C8.36529 7.34878 8.33876 7.3722 8.3109 7.3968C7.98267 7.68657 7.4691 8.13996 7.40469 8.92149C7.37675 9.26052 7.62893 9.55801 7.96796 9.58595C8.30699 9.61389 8.60448 9.3617 8.63242 9.02268C8.65492 8.74977 8.80169 8.61369 9.21461 8.24171C9.6022 7.89256 10.1342 7.38156 10.1557 6.42984C10.156 6.42023 10.156 6.41062 10.1557 6.40101C10.1421 5.83922 9.90398 5.30631 9.49452 4.92142C9.09009 4.54126 8.55185 4.33683 7.99757 4.35225C6.843 4.32939 5.88219 5.23917 5.84458 6.39589C5.83353 6.73589 6.10019 7.02047 6.44019 7.03153C6.78019 7.04258 7.06478 6.77592 7.07583 6.43592C7.0916 5.95081 7.49685 5.56988 7.98201 5.58412C7.99576 5.58452 8.00952 5.58446 8.02326 5.58394ZM8.00007 11.3127C8.34025 11.3127 8.61602 11.0369 8.61602 10.6967C8.61602 10.3565 8.34025 10.0808 8.00007 10.0808C7.65989 10.0808 7.38412 10.3565 7.38412 10.6967C7.38412 11.0369 7.65989 11.3127 8.00007 11.3127Z" fill="#001266"/>
</svg>
