<svg width="16" height="16" viewBox="0 0 16 16" fill="none" xmlns="http://www.w3.org/2000/svg">
<path d="M7.99998 14.6667C4.31798 14.6667 1.33331 11.682 1.33331 8C1.33331 4.318 4.31798 1.33333 7.99998 1.33333C11.682 1.33333 14.6666 4.318 14.6666 8C14.6666 11.682 11.682 14.6667 7.99998 14.6667ZM7.99998 13.3333C9.41447 13.3333 10.771 12.7714 11.7712 11.7712C12.7714 10.771 13.3333 9.41448 13.3333 8C13.3333 6.58551 12.7714 5.22895 11.7712 4.22876C10.771 3.22856 9.41447 2.66666 7.99998 2.66666C6.58549 2.66666 5.22894 3.22856 4.22874 4.22876C3.22855 5.22895 2.66665 6.58551 2.66665 8C2.66665 9.41448 3.22855 10.771 4.22874 11.7712C5.22894 12.7714 6.58549 13.3333 7.99998 13.3333ZM7.33331 4.66666H8.66665V6H7.33331V4.66666ZM7.33331 7.33333H8.66665V11.3333H7.33331V7.33333Z" fill="#001266"/>
</svg>
